# xmcd
#
# Track frame offsets: 
#        150
#        17125
#        30812
#        44512
#        59512
#        71637
#        85012
#        98287
#        113125
#        132125
#        152450
#        166237
#        179000
#        193350
#        207012
#        219325
#        232200
#        246137
#        259050
#        274837
#
# Disc length: 3925 seconds
#
# Revision: 0
# Processed by: cddbd v1.5.1PL0 Copyright (c) Steve Scherf et al.
# Submitted via: ExactAudioCopy v0.95b2
#
DISCID=130f5314
DTITLE=蔡琴 - 蔡琴经典金曲精选（一）
DYEAR=1996
DGENRE=Easy Listening
TTITLE0=你的眼神
TTITLE1=明月千里寄相思
TTITLE2=昨夜你对我一笑
TTITLE3=不了情
TTITLE4=今宵多珍重
TTITLE5=魂牵旧梦
TTITLE6=愿嫁汉家郎
TTITLE7=问白云
TTITLE8=意难忘
TTITLE9=初恋女
TTITLE10=恋痕
TTITLE11=神秘女郎
TTITLE12=庭院深深
TTITLE13=再爱我一次
TTITLE14=甜蜜的家庭
TTITLE15=想你的时候
TTITLE16=白发吟
TTITLE17=空中歌声
TTITLE18=痴情泪
TTITLE19=情是什么
EXTD=
EXTT0=
EXTT1=
EXTT2=
EXTT3=
EXTT4=
EXTT5=
EXTT6=
EXTT7=
EXTT8=
EXTT9=
EXTT10=
EXTT11=
EXTT12=
EXTT13=
EXTT14=
EXTT15=
EXTT16=
EXTT17=
EXTT18=
EXTT19=
PLAYORDER=
